# xmcd CD database file
#
# Track frame offsets:
#	150
#	9829
#	20107
#	30955
#	39934
#	50573
#	61159
#	72761
#	84235
#	94446
#	104057
#	114013
#	123744
#	135839
#	147957
#	161669
#	172294
#	181496
#	192398
#	202501
#	213436
#	221309
#	233769
#	243824
#
# Disc length: 3397 seconds
#
# Revision: 2
# Processed by: cddbd v1.5.2PL0 Copyright (c) Steve Scherf et al.
# Submitted via: CDex 1.70beta2
#
DISCID=410d4318
DTITLE=Mitchell, Willie - Soul Serenade and Willie Mitchell Live
DYEAR=2001
DGENRE=Soul
TTITLE0=Ooh Baby, You Turn Me On (Mitchell-Love-Thomas-Hodges)
TTITLE1=Soul Finger (King-Cunningham-Jones-Cauley-Caldwell)
TTITLE2=Cleo's Mood (DeWalt-Fuqua-Woods)
TTITLE3=Slippin' And Slidin' (Penniman-Bocage-Collins-Smith)
TTITLE4=Soul Serenade (Ousley-Dixon)
TTITLE5=Willie's Mood (Mitchell-Hodges)
TTITLE6=Sunny (Bobby Hebb)
TTITLE7=Pearl Time (Williams)
TTITLE8=Papa's Got A Brand New Bag (Brown)
TTITLE9=Respect (Redding)
TTITLE10=Have You Ever Heard The Blues Logan-Price)
TTITLE11=Toddlin' (Miller-Love-Mitchell)
TTITLE12=20-75 (Mitchell)
TTITLE13=My Girl (Robinson-White)
TTITLE14=Mustang Sally (Rice)
TTITLE15=Mercy Mercy Mercy (Zawinul)
TTITLE16=Smokie (Black)
TTITLE17=Late Date (Mitchell-Emmons-Young)
TTITLE18=Tequila (Rio)
TTITLE19=Bum Daddy (Hodges-Mitchell)
TTITLE20=Boot-Leg (Axton-Hayes-Dunn-Jackson) 
TTITLE21=Honky Tonk (Dogget-Butler-Scott-Shepherd)
TTITLE22=I'll Be In Trouble (Robinson)
TTITLE23=Pin Head (Young-Chalmers)
EXTD=YEAR: 2001
EXTT0=
EXTT1=
EXTT2=
EXTT3=
EXTT4=
EXTT5=
EXTT6=
EXTT7=
EXTT8=
EXTT9=
EXTT10=
EXTT11=
EXTT12=
EXTT13=
EXTT14=
EXTT15=
EXTT16=
EXTT17=
EXTT18=
EXTT19=
EXTT20=
EXTT21=
EXTT22=
EXTT23=
PLAYORDER=
